<svg id="svg" version="1.1" xmlns="http://www.w3.org/2000/svg" xmlns:xlink="http://www.w3.org/1999/xlink" width="400" height="400" viewBox="0, 0, 400,400"><g id="svgg"><path id="path0" d="M197.656 26.460 C 197.119 26.559,194.834 27.345,192.578 28.205 C 180.045 32.985,148.269 43.710,129.297 49.564 C 111.340 55.104,92.873 59.789,70.628 64.448 C 58.440 67.000,57.120 67.515,55.330 70.412 L 54.183 72.268 54.255 132.130 C 54.296 166.614,54.490 194.311,54.711 197.461 C 58.803 255.654,88.378 304.046,145.117 345.383 C 164.404 359.435,192.038 374.592,199.609 375.271 C 206.223 375.865,233.801 361.165,254.729 345.891 C 312.180 303.962,341.513 256.003,345.275 197.852 C 346.102 185.070,346.170 73.094,345.352 71.273 C 343.824 67.873,342.538 67.259,332.617 65.188 C 294.506 57.233,260.292 47.335,216.992 31.740 C 201.134 26.028,200.667 25.900,197.656 26.460 M158.097 72.767 C 159.175 73.850,159.179 73.875,158.984 78.041 C 158.010 98.918,160.111 107.999,169.034 121.484 C 176.355 132.547,184.223 139.440,206.836 154.596 C 225.859 167.346,234.839 174.863,241.483 183.598 C 261.185 209.502,254.333 239.975,223.314 264.394 C 219.605 267.314,220.435 267.352,215.148 264.022 C 212.725 262.496,209.891 260.815,208.850 260.286 L 206.958 259.325 208.655 258.242 C 212.495 255.792,224.339 244.115,228.854 238.328 C 238.049 226.543,239.737 211.482,233.304 198.633 C 227.933 187.904,220.454 181.219,193.555 163.106 C 161.578 141.574,146.982 121.857,143.568 95.585 C 142.649 88.514,143.099 73.407,144.272 71.933 C 145.191 70.779,156.815 71.480,158.097 72.767 M256.392 72.949 C 256.939 75.465,257.140 90.919,256.676 94.736 C 254.125 115.718,241.669 136.710,222.680 152.033 C 218.924 155.064,219.081 155.033,216.694 153.228 C 215.569 152.377,213.035 150.589,211.064 149.255 C 207.702 146.980,206.325 145.824,206.683 145.580 C 217.295 138.331,229.893 124.309,235.315 113.709 C 240.134 104.289,241.406 97.943,241.406 83.334 C 241.406 70.646,240.572 71.875,249.187 71.875 L 256.159 71.875 256.392 72.949 M233.906 92.656 C 234.710 93.460,234.498 98.426,233.598 99.902 L 232.824 101.172 199.647 101.172 C 181.400 101.172,166.192 101.065,165.852 100.935 C 165.341 100.739,165.234 99.962,165.234 96.443 L 165.234 92.188 199.336 92.188 C 225.339 92.188,233.549 92.299,233.906 92.656 M225.391 117.797 C 225.391 118.206,220.035 124.429,218.595 125.694 L 217.160 126.953 199.845 126.953 L 182.530 126.953 179.442 123.730 C 176.010 120.149,174.506 118.202,174.881 117.827 C 175.187 117.521,225.391 117.491,225.391 117.797 M186.685 167.495 C 191.876 170.557,192.257 170.858,191.568 171.358 C 189.918 172.556,180.012 181.672,175.957 185.725 C 159.958 201.715,158.200 221.290,171.184 238.870 C 176.709 246.351,184.222 252.417,198.883 261.233 C 221.662 274.932,231.320 282.532,239.711 293.359 C 247.541 303.462,252.732 317.106,252.734 327.586 L 252.734 330.757 251.270 330.999 C 249.190 331.343,239.535 331.309,239.318 330.957 C 239.218 330.796,238.760 328.554,238.300 325.976 C 235.513 310.375,227.831 298.421,213.791 287.841 C 210.032 285.008,206.653 282.819,191.243 273.238 C 176.101 263.823,169.618 258.731,162.203 250.427 C 145.637 231.875,142.952 208.861,155.032 188.959 C 160.393 180.128,177.953 162.551,180.227 163.742 C 180.682 163.980,183.588 165.669,186.685 167.495 M218.971 188.574 C 220.309 190.139,222.931 193.820,223.978 195.605 C 224.206 195.994,219.309 196.094,200.023 196.094 C 183.282 196.094,175.781 195.966,175.781 195.682 C 175.781 195.025,178.901 190.603,180.796 188.574 L 182.529 186.719 199.956 186.719 L 217.383 186.719 218.971 188.574 M230.673 211.816 C 230.794 212.300,230.842 214.365,230.779 216.406 L 230.664 220.117 200.858 220.217 C 180.756 220.285,170.804 220.185,170.291 219.911 C 169.367 219.416,169.150 213.130,170.020 212.034 C 170.840 210.999,170.813 211.000,201.067 210.968 L 230.454 210.938 230.673 211.816 M223.037 235.449 C 223.032 235.610,221.393 237.676,219.396 240.039 L 215.765 244.336 199.889 244.336 L 184.014 244.336 182.003 242.383 C 179.069 239.534,176.125 235.938,176.384 235.519 C 176.653 235.084,223.052 235.014,223.037 235.449 M182.813 277.542 C 184.854 278.856,187.446 280.448,188.574 281.079 C 191.095 282.490,191.103 282.360,188.379 284.200 C 187.144 285.035,183.133 288.711,179.466 292.371 C 168.419 303.394,164.740 309.989,161.750 324.123 C 160.094 331.952,160.893 331.262,153.803 330.989 C 146.749 330.718,147.057 330.918,147.124 326.640 C 147.280 316.642,152.944 302.286,160.681 292.278 C 166.072 285.304,177.544 274.215,178.668 274.892 C 178.906 275.035,180.771 276.228,182.813 277.542 M221.011 301.855 C 222.548 303.692,225.388 308.126,225.390 308.691 C 225.390 308.853,213.969 308.984,200.010 308.984 L 174.630 308.984 175.837 306.934 C 176.502 305.806,177.918 303.784,178.986 302.441 L 180.927 300.000 200.193 300.000 L 219.459 300.000 221.011 301.855 " stroke="none" fill="#db130c" fill-rule="evenodd"></path><path id="path1" d="M0.000 200.000 L 0.000 400.000 200.000 400.000 L 400.000 400.000 400.000 200.000 L 400.000 0.000 200.000 0.000 L 0.000 0.000 0.000 200.000 M214.453 30.649 C 258.055 46.477,297.007 57.774,333.789 65.259 C 342.764 67.085,344.691 68.218,345.849 72.346 C 346.641 75.168,346.020 194.753,345.172 202.639 C 339.501 255.392,317.071 294.802,270.505 333.829 C 247.604 353.022,211.174 374.752,200.952 375.316 C 192.180 375.801,158.875 356.895,135.156 337.966 C 85.269 298.154,60.923 256.924,54.814 201.907 C 54.013 194.695,53.530 74.711,54.292 72.144 C 55.558 67.876,57.366 67.033,71.680 64.038 C 107.316 56.580,147.611 44.665,188.477 29.499 C 200.314 25.106,199.029 25.050,214.453 30.649 M143.995 72.949 C 142.056 82.952,143.298 98.522,146.914 109.549 C 153.544 129.765,166.692 144.762,193.899 163.142 C 213.332 176.270,221.462 182.577,226.699 188.588 C 239.438 203.208,240.871 220.560,230.620 236.059 C 227.678 240.506,214.422 254.218,209.844 257.549 L 207.384 259.340 209.015 260.172 C 209.912 260.630,212.750 262.309,215.320 263.905 L 219.994 266.805 221.618 265.551 C 247.609 245.477,257.471 222.426,249.914 199.414 C 244.875 184.073,233.687 172.656,204.675 153.248 C 167.208 128.185,155.769 109.659,158.888 79.102 C 159.586 72.259,159.142 71.875,150.530 71.875 L 144.203 71.875 143.995 72.949 M242.383 72.404 C 241.636 72.958,241.601 73.451,241.580 83.465 C 241.555 95.347,241.104 99.060,238.876 105.719 C 234.448 118.952,223.164 133.209,207.842 144.929 L 206.555 145.914 212.092 149.812 C 215.137 151.957,217.948 153.938,218.338 154.216 C 220.489 155.747,238.262 137.400,245.695 125.977 C 252.074 116.173,256.220 102.642,256.888 89.453 C 257.116 84.960,256.485 72.762,256.000 72.275 C 255.446 71.719,243.148 71.835,242.383 72.404 M165.625 96.477 C 165.625 100.602,165.659 100.775,166.504 100.979 C 166.987 101.096,182.042 101.143,199.958 101.084 L 232.533 100.977 233.338 99.898 C 234.294 98.618,234.714 94.333,234.013 93.022 L 233.566 92.188 199.596 92.188 L 165.625 92.188 165.625 96.477 M175.886 117.938 L 174.623 118.164 177.936 121.959 C 182.223 126.868,180.213 126.426,199.410 126.680 C 219.715 126.948,217.347 127.647,223.998 119.419 L 225.509 117.548 201.329 117.630 C 188.030 117.676,176.580 117.814,175.886 117.938 M175.586 166.641 C 140.632 195.886,138.240 228.463,168.945 257.069 C 175.238 262.932,181.678 267.337,203.125 280.453 C 225.045 293.857,235.442 307.395,238.572 326.613 L 239.254 330.801 242.929 331.076 C 246.618 331.353,250.741 331.150,252.111 330.624 C 253.623 330.044,252.138 319.165,249.534 311.741 C 242.818 292.596,229.584 279.492,198.438 261.146 C 174.043 246.777,163.322 233.327,162.608 216.196 C 162.058 203.001,167.274 192.813,180.664 180.933 C 191.294 171.502,191.948 170.817,190.931 170.180 C 187.287 167.900,179.863 163.674,179.521 163.686 C 179.290 163.693,177.520 165.023,175.586 166.641 M180.284 189.355 C 179.075 190.806,177.571 192.824,176.941 193.841 L 175.796 195.691 198.152 195.795 C 210.448 195.852,221.253 195.844,222.163 195.779 L 223.819 195.659 222.359 193.363 C 221.556 192.101,220.053 190.089,219.020 188.893 L 217.142 186.719 199.812 186.719 L 182.481 186.719 180.284 189.355 M170.109 212.262 C 169.037 213.898,169.453 219.177,170.703 219.810 C 171.470 220.197,177.981 220.284,200.977 220.210 L 230.273 220.117 230.384 215.723 L 230.494 211.328 200.608 211.328 L 170.721 211.328 170.109 212.262 M176.845 235.613 C 176.307 235.946,177.639 237.712,181.137 241.301 C 184.449 244.700,183.360 244.522,200.849 244.527 L 214.784 244.531 216.032 243.481 C 217.218 242.483,222.656 235.973,222.656 235.551 C 222.656 235.250,177.333 235.311,176.845 235.613 M176.172 276.452 C 159.307 290.232,147.266 311.278,147.266 326.972 C 147.266 331.115,146.828 330.859,153.916 330.859 L 160.092 330.859 160.929 327.051 C 164.620 310.263,167.464 304.526,177.260 294.107 C 180.929 290.206,188.156 283.812,189.685 283.115 C 190.907 282.559,190.870 282.331,189.460 281.706 C 188.820 281.423,186.114 279.798,183.448 278.095 C 177.806 274.493,178.403 274.628,176.172 276.452 M179.030 302.637 C 176.682 305.759,174.879 308.603,175.105 308.829 C 175.194 308.918,186.547 308.945,200.334 308.890 L 225.401 308.789 223.931 306.290 C 223.123 304.915,221.698 302.937,220.765 301.895 L 219.068 300.000 200.040 300.000 L 181.013 300.000 179.030 302.637 " stroke="none" fill="#fcfbfb" fill-rule="evenodd"></path><path id="path2" d="M346.200 79.688 C 346.200 80.654,346.276 81.050,346.369 80.566 C 346.463 80.083,346.463 79.292,346.369 78.809 C 346.276 78.325,346.200 78.721,346.200 79.688 M54.070 105.078 C 54.070 109.268,54.127 110.981,54.197 108.887 C 54.268 106.792,54.268 103.364,54.197 101.270 C 54.127 99.175,54.070 100.889,54.070 105.078 M54.047 116.406 C 54.047 118.447,54.113 119.282,54.193 118.262 C 54.274 117.241,54.274 115.571,54.193 114.551 C 54.113 113.530,54.047 114.365,54.047 116.406 M54.005 123.242 C 54.009 124.102,54.089 124.407,54.183 123.921 C 54.276 123.435,54.272 122.732,54.175 122.359 C 54.077 121.985,54.000 122.383,54.005 123.242 M184.878 126.852 C 186.121 126.929,188.054 126.929,189.174 126.850 C 190.295 126.771,189.277 126.708,186.914 126.709 C 184.551 126.710,183.634 126.774,184.878 126.852 M53.997 139.453 C 53.997 140.205,54.077 140.513,54.176 140.137 C 54.274 139.761,54.274 139.146,54.176 138.770 C 54.077 138.394,53.997 138.701,53.997 139.453 M53.997 154.688 C 53.997 155.439,54.077 155.747,54.176 155.371 C 54.274 154.995,54.274 154.380,54.176 154.004 C 54.077 153.628,53.997 153.936,53.997 154.688 M54.084 171.875 C 54.084 180.361,54.136 183.833,54.199 179.590 C 54.262 175.347,54.262 168.403,54.199 164.160 C 54.136 159.917,54.084 163.389,54.084 171.875 M233.594 175.195 C 234.323 175.947,235.007 176.563,235.114 176.563 C 235.222 176.563,234.713 175.947,233.984 175.195 C 233.256 174.443,232.571 173.828,232.464 173.828 C 232.357 173.828,232.865 174.443,233.594 175.195 M175.760 185.449 L 174.414 186.914 175.879 185.568 C 177.242 184.315,177.523 183.984,177.225 183.984 C 177.160 183.984,176.501 184.644,175.760 185.449 M186.062 195.996 C 191.610 196.057,200.575 196.057,205.984 195.996 C 211.394 195.935,206.855 195.884,195.898 195.885 C 184.941 195.885,180.515 195.935,186.062 195.996 M186.455 211.230 C 194.581 211.289,207.764 211.289,215.752 211.230 C 223.739 211.171,217.090 211.123,200.977 211.123 C 184.863 211.123,178.328 211.171,186.455 211.230 M230.603 215.820 C 230.604 217.539,230.673 218.194,230.755 217.275 C 230.838 216.356,230.837 214.950,230.753 214.150 C 230.669 213.350,230.601 214.102,230.603 215.820 M177.911 293.457 L 176.367 295.117 178.027 293.573 C 179.571 292.137,179.867 291.797,179.571 291.797 C 179.508 291.797,178.761 292.544,177.911 293.457 " stroke="none" fill="#f19e9c" fill-rule="evenodd"></path><path id="path3" d="M346.200 82.813 C 346.200 83.779,346.276 84.175,346.369 83.691 C 346.463 83.208,346.463 82.417,346.369 81.934 C 346.276 81.450,346.200 81.846,346.200 82.813 M165.379 96.875 C 165.379 99.131,165.443 100.054,165.522 98.926 C 165.601 97.798,165.601 95.952,165.522 94.824 C 165.443 93.696,165.379 94.619,165.379 96.875 M54.031 126.953 C 54.031 128.350,54.102 128.921,54.189 128.223 C 54.275 127.524,54.275 126.382,54.189 125.684 C 54.102 124.985,54.031 125.557,54.031 126.953 M195.041 126.854 C 197.362 126.923,201.053 126.923,203.244 126.854 C 205.434 126.784,203.535 126.728,199.023 126.728 C 194.512 126.728,192.720 126.785,195.041 126.854 M54.038 132.422 C 54.038 134.033,54.107 134.692,54.191 133.887 C 54.275 133.081,54.275 131.763,54.191 130.957 C 54.107 130.151,54.038 130.811,54.038 132.422 M54.005 136.914 C 54.009 137.773,54.089 138.079,54.183 137.593 C 54.276 137.107,54.272 136.404,54.175 136.031 C 54.077 135.657,54.000 136.055,54.005 136.914 M54.049 144.336 C 54.050 146.484,54.116 147.313,54.195 146.178 C 54.274 145.043,54.273 143.285,54.193 142.272 C 54.113 141.259,54.048 142.188,54.049 144.336 M54.018 151.758 C 54.021 152.832,54.097 153.225,54.187 152.631 C 54.276 152.038,54.274 151.159,54.181 150.678 C 54.089 150.198,54.015 150.684,54.018 151.758 M223.047 184.888 C 223.047 184.955,223.618 185.526,224.316 186.157 L 225.586 187.305 224.439 186.035 C 223.369 184.852,223.047 184.586,223.047 184.888 M216.699 195.986 C 217.397 196.072,218.540 196.072,219.238 195.986 C 219.937 195.899,219.365 195.828,217.969 195.828 C 216.572 195.828,216.001 195.899,216.699 195.986 M221.387 195.979 C 221.870 196.072,222.661 196.072,223.145 195.979 C 223.628 195.886,223.232 195.810,222.266 195.810 C 221.299 195.810,220.903 195.886,221.387 195.979 M189.941 235.449 C 195.903 235.510,205.659 235.510,211.621 235.449 C 217.583 235.388,212.705 235.339,200.781 235.339 C 188.857 235.339,183.979 235.388,189.941 235.449 M221.094 293.872 C 221.094 293.939,221.665 294.511,222.363 295.142 L 223.633 296.289 222.486 295.020 C 221.416 293.836,221.094 293.570,221.094 293.872 " stroke="none" fill="#f9c9c8" fill-rule="evenodd"></path><path id="path4" d="M147.168 71.774 C 148.726 71.849,151.274 71.849,152.832 71.774 C 154.390 71.700,153.115 71.640,150.000 71.640 C 146.885 71.640,145.610 71.700,147.168 71.774 M241.545 85.352 C 241.544 87.285,241.610 88.125,241.692 87.219 C 241.774 86.312,241.775 84.730,241.694 83.703 C 241.613 82.676,241.546 83.418,241.545 85.352 M54.069 90.430 C 54.069 94.512,54.127 96.129,54.198 94.023 C 54.268 91.917,54.268 88.577,54.197 86.601 C 54.126 84.625,54.069 86.348,54.069 90.430 M345.891 147.656 C 345.891 169.463,345.938 178.384,345.996 167.480 C 346.054 156.577,346.054 138.735,345.996 127.832 C 345.938 116.929,345.891 125.850,345.891 147.656 M167.759 173.535 L 165.820 175.586 167.871 173.647 C 168.999 172.581,169.922 171.659,169.922 171.597 C 169.922 171.305,169.560 171.630,167.759 173.535 M237.221 214.648 C 237.224 215.723,237.300 216.116,237.390 215.522 C 237.479 214.928,237.477 214.049,237.384 213.569 C 237.292 213.088,237.218 213.574,237.221 214.648 M252.442 214.648 C 252.447 215.508,252.527 215.813,252.620 215.327 C 252.713 214.842,252.710 214.138,252.612 213.765 C 252.514 213.392,252.438 213.789,252.442 214.648 M216.186 243.457 L 215.039 244.727 216.309 243.579 C 217.007 242.948,217.578 242.377,217.578 242.310 C 217.578 242.008,217.256 242.274,216.186 243.457 M232.617 285.547 C 233.675 286.621,234.629 287.500,234.736 287.500 C 234.844 287.500,234.066 286.621,233.008 285.547 C 231.950 284.473,230.996 283.594,230.889 283.594 C 230.781 283.594,231.559 284.473,232.617 285.547 M294.120 311.621 L 292.773 313.086 294.238 311.740 C 295.602 310.487,295.883 310.156,295.584 310.156 C 295.519 310.156,294.860 310.815,294.120 311.621 M108.594 314.258 C 109.761 315.439,110.803 316.406,110.911 316.406 C 111.018 316.406,110.151 315.439,108.984 314.258 C 107.817 313.076,106.775 312.109,106.667 312.109 C 106.560 312.109,107.427 313.076,108.594 314.258 M287.088 318.652 L 285.742 320.117 287.207 318.771 C 288.570 317.518,288.851 317.188,288.553 317.188 C 288.488 317.188,287.829 317.847,287.088 318.652 M146.981 326.953 C 146.981 327.920,147.058 328.315,147.151 327.832 C 147.244 327.349,147.244 326.558,147.151 326.074 C 147.058 325.591,146.981 325.986,146.981 326.953 M157.134 331.140 C 157.728 331.229,158.607 331.227,159.087 331.134 C 159.568 331.042,159.082 330.968,158.008 330.971 C 156.934 330.974,156.541 331.050,157.134 331.140 " stroke="none" fill="#ef7c74" fill-rule="evenodd"></path></g></svg>