<?xml version="1.0" encoding="UTF-8"?><svg xmlns="http://www.w3.org/2000/svg" xmlns:xlink="http://www.w3.org/1999/xlink" fill-opacity="1" color-rendering="auto" color-interpolation="auto" text-rendering="auto" stroke="black" stroke-linecap="square" width="375" stroke-miterlimit="10" shape-rendering="auto" stroke-opacity="1" fill="black" stroke-dasharray="none" font-weight="normal" stroke-width="1" height="403" font-family="'Dialog'" font-style="normal" stroke-linejoin="miter" font-size="12px" stroke-dashoffset="0" image-rendering="auto">
  <!--Generated by ySVG 2.5-->
  <defs id="genericDefs"/>
  <g>
    <g fill="white" text-rendering="geometricPrecision" shape-rendering="geometricPrecision" transform="matrix(1,0,0,1,-1125,740)" stroke="white">
      <rect x="1273.0855" y="-724.8442" clip-path="url(#clipPath2)" width="211" rx="4" ry="4" height="105.5" stroke="none"/>
    </g>
    <g stroke-linecap="butt" transform="matrix(1,0,0,1,-1125,740)" fill="rgb(216,40,0)" text-rendering="geometricPrecision" shape-rendering="geometricPrecision" stroke="rgb(216,40,0)" stroke-width="7" stroke-miterlimit="1.45">
      <rect x="1273.0855" y="-724.8442" clip-path="url(#clipPath2)" fill="none" width="211" rx="4" ry="4" height="105.5"/>
    </g>
    <g stroke-linecap="butt" font-size="35px" transform="matrix(1,0,0,1,-1125,740)" fill="rgb(216,40,0)" text-rendering="geometricPrecision" font-family="'IBM Plex Sans'" shape-rendering="geometricPrecision" stroke="rgb(216,40,0)" font-weight="bold" stroke-miterlimit="1.45">
      <text x="1319.068" xml:space="preserve" y="-681.7192" clip-path="url(#clipPath2)" stroke="none">QUANT</text>
      <text x="1286.9905" xml:space="preserve" y="-636.2192" clip-path="url(#clipPath2)" stroke="none">DATABASE</text>
    </g>
    <g fill="white" text-rendering="geometricPrecision" shape-rendering="geometricPrecision" transform="matrix(1,0,0,1,-1125,740)" stroke="white">
      <rect x="1273.0855" y="-591.5942" clip-path="url(#clipPath2)" width="211" rx="4" ry="4" height="105.5" stroke="none"/>
    </g>
    <g stroke-linecap="butt" transform="matrix(1,0,0,1,-1125,740)" fill="rgb(216,40,0)" text-rendering="geometricPrecision" shape-rendering="geometricPrecision" stroke="rgb(216,40,0)" stroke-width="7" stroke-miterlimit="1.45">
      <rect x="1273.0855" y="-591.5942" clip-path="url(#clipPath2)" fill="none" width="211" rx="4" ry="4" height="105.5"/>
    </g>
    <g stroke-linecap="butt" font-size="35px" transform="matrix(1,0,0,1,-1125,740)" fill="rgb(216,40,0)" text-rendering="geometricPrecision" font-family="'IBM Plex Sans'" shape-rendering="geometricPrecision" stroke="rgb(216,40,0)" font-weight="bold" stroke-miterlimit="1.45">
      <text x="1319.068" xml:space="preserve" y="-548.4692" clip-path="url(#clipPath2)" stroke="none">QUANT</text>
      <text x="1331.6155" xml:space="preserve" y="-502.9692" clip-path="url(#clipPath2)" stroke="none">SCAN</text>
    </g>
    <g fill="white" text-rendering="geometricPrecision" shape-rendering="geometricPrecision" transform="matrix(1,0,0,1,-1125,740)" stroke="white">
      <rect x="1273.0855" y="-458.3442" clip-path="url(#clipPath2)" width="211" rx="4" ry="4" height="105.5" stroke="none"/>
    </g>
    <g stroke-linecap="butt" transform="matrix(1,0,0,1,-1125,740)" fill="rgb(216,40,0)" text-rendering="geometricPrecision" shape-rendering="geometricPrecision" stroke="rgb(216,40,0)" stroke-width="7" stroke-miterlimit="1.45">
      <rect x="1273.0855" y="-458.3442" clip-path="url(#clipPath2)" fill="none" width="211" rx="4" ry="4" height="105.5"/>
    </g>
    <g stroke-linecap="butt" font-size="35px" transform="matrix(1,0,0,1,-1125,740)" fill="rgb(216,40,0)" text-rendering="geometricPrecision" font-family="'IBM Plex Sans'" shape-rendering="geometricPrecision" stroke="rgb(216,40,0)" font-weight="bold" stroke-miterlimit="1.45">
      <text x="1319.068" xml:space="preserve" y="-415.2192" clip-path="url(#clipPath2)" stroke="none">QUANT</text>
      <text x="1334.538" xml:space="preserve" y="-369.7192" clip-path="url(#clipPath2)" stroke="none">CALC</text>
    </g>
    <g fill="white" text-rendering="geometricPrecision" shape-rendering="geometricPrecision" transform="matrix(1,0,0,1,-1125,740)" stroke="white">
      <rect x="1140.1901" y="-724.8442" clip-path="url(#clipPath2)" width="105.5" rx="4" ry="4" height="105.5" stroke="none"/>
    </g>
    <g stroke-linecap="butt" transform="matrix(1,0,0,1,-1125,740)" fill="rgb(216,40,0)" text-rendering="geometricPrecision" shape-rendering="geometricPrecision" stroke="rgb(216,40,0)" stroke-width="7" stroke-miterlimit="1.45">
      <rect x="1140.1901" y="-724.8442" clip-path="url(#clipPath2)" fill="none" width="105.5" rx="4" ry="4" height="105.5"/>
    </g>
    <g fill="white" text-rendering="geometricPrecision" shape-rendering="geometricPrecision" transform="matrix(1,0,0,1,-1125,740)" stroke="white">
      <rect x="1140.1901" y="-458.3442" clip-path="url(#clipPath2)" width="105.5" rx="4" ry="4" height="105.5" stroke="none"/>
    </g>
    <g stroke-linecap="butt" transform="matrix(1,0,0,1,-1125,740)" fill="rgb(216,40,0)" text-rendering="geometricPrecision" shape-rendering="geometricPrecision" stroke="rgb(216,40,0)" stroke-width="7" stroke-miterlimit="1.45">
      <rect x="1140.1901" y="-458.3442" clip-path="url(#clipPath2)" fill="none" width="105.5" rx="4" ry="4" height="105.5"/>
    </g>
    <g text-rendering="geometricPrecision" shape-rendering="geometricPrecision" transform="matrix(0.0828,0,0,0.0828,39.7587,160.3606)">
      <g clip-path="url(#clipPath3)">
        <svg xml:space="preserve" opacity="1" writing-mode="lr-tb" stop-color="rgb(0, 0, 0)" shape-rendering="auto" glyph-orientation-horizontal="0deg" color-profile="auto" lighting-color="rgb(255, 255, 255)" color="rgb(0, 0, 0)" font-weight="400" alignment-baseline="auto" font-style="normal" color-interpolation-filters="linearrgb" text-anchor="start" stroke-linecap="butt" color-interpolation="srgb" font-variant="normal" word-spacing="normal" fill-opacity="1" text-rendering="auto" clip-path="none" text-decoration="none" letter-spacing="normal" glyph-orientation-vertical="auto" display="inline" font-size-adjust="none" fill="rgb(0, 0, 0)" overflow="hidden" font-stretch="normal" stroke-dasharray="none" stroke-miterlimit="4" stop-opacity="1" color-rendering="auto" font-size="12" mask="none" direction="ltr" baseline-shift="baseline" pointer-events="visiblepainted" enable-background="accumulate" fill-rule="nonzero" image-rendering="auto" stroke-dashoffset="0" width="679" marker-end="none" clip="auto" cursor="auto" stroke="none" filter="none" visibility="visible" kerning="auto" stroke-width="1" font-family="&quot;Arial&quot;,&quot;Helvetica&quot;,sans-serif" flood-opacity="1" clip-rule="nonzero" src="none" height="985" unicode-bidi="normal" stroke-linejoin="miter" stroke-opacity="1" flood-color="rgb(0, 0, 0)" dominant-baseline="auto" marker-start="none" marker-mid="none"><defs><linearGradient x1="1068.5" x2="1068.5" gradientUnits="userSpaceOnUse" y1="775" y2="1304" id="svg1.fill0" spreadMethod="reflect"><stop offset="0" stop-color="#32D54B" stop-opacity="1"/><stop offset="0.5" stop-color="#32D54B" stop-opacity="0.560784"/><stop offset="1" stop-color="#32D54B" stop-opacity="0"/></linearGradient><clipPath clipPathUnits="userSpaceOnUse" id="clipPath1"><path d="M0 0 L375 0 L375 403 L0 403 L0 0 Z"/></clipPath><clipPath clipPathUnits="userSpaceOnUse" id="clipPath2"><path d="M1125 -740 L1500 -740 L1500 -337 L1125 -337 L1125 -740 Z"/></clipPath><clipPath clipPathUnits="userSpaceOnUse" id="clipPath3"><path d="M-480.3824 -1937.5483 L4050.5354 -1937.5483 L4050.5354 2931.678 L-480.3824 2931.678 L-480.3824 -1937.5483 Z"/></clipPath><clipPath clipPathUnits="userSpaceOnUse" id="clipPath4"><path d="M-46.6821 -904.7521 L818.7098 -904.7521 L818.7098 322.954 L-46.6821 322.954 L-46.6821 -904.7521 Z"/></clipPath><clipPath clipPathUnits="userSpaceOnUse" id="clipPath5"><path d="M-533.9774 -432.0536 L4105.0967 -432.0536 L4105.0967 4553.4048 L-533.9774 4553.4048 L-533.9774 -432.0536 Z"/></clipPath><clipPath clipPathUnits="userSpaceOnUse" id="clipPath6"><path d="M-575.7561 -2219.9292 L4481.584 -2219.9292 L4481.584 3215.0254 L-575.7561 3215.0254 L-575.7561 -2219.9292 Z"/></clipPath></defs><g transform="translate(-728 -678)"><g><path stroke-linecap="butt" fill-opacity="1" fill="#FFFFFF" fill-rule="evenodd" stroke-linejoin="miter" d="M744 1022.8 873.8 867 1393 867 1393 1646 744 1646Z" stroke="#000000" stroke-width="27.5" stroke-opacity="1" stroke-miterlimit="8"/><text text-anchor="start" fill-opacity="1" text-decoration="none" font-variant="normal" transform="matrix(1 0 0 1 833.638 965)" direction="ltr" fill="#000000" font-weight="400" font-family="Aptos,Aptos_MSFontService,sans-serif" font-style="normal" font-stretch="normal" unicode-bidi="normal" font-size="83" writing-mode="lr-tb">....................</text><text text-anchor="start" fill-opacity="1" text-decoration="none" font-variant="normal" transform="matrix(1 0 0 1 833.638 1064)" direction="ltr" fill="#000000" font-weight="400" font-family="Aptos,Aptos_MSFontService,sans-serif" font-style="normal" font-stretch="normal" unicode-bidi="normal" font-size="83" writing-mode="lr-tb">....................</text><text text-anchor="start" fill-opacity="1" text-decoration="none" font-variant="normal" transform="matrix(1 0 0 1 833.638 1163)" direction="ltr" fill="#000000" font-weight="400" font-family="Aptos,Aptos_MSFontService,sans-serif" font-style="normal" font-stretch="normal" unicode-bidi="normal" font-size="83" writing-mode="lr-tb">....................</text><text text-anchor="start" fill-opacity="1" text-decoration="none" font-variant="normal" transform="matrix(1 0 0 1 833.638 1262)" direction="ltr" fill="#000000" font-weight="400" font-family="Aptos,Aptos_MSFontService,sans-serif" font-style="normal" font-stretch="normal" unicode-bidi="normal" font-size="83" writing-mode="lr-tb">.................... </text><text text-anchor="start" fill-opacity="1" text-decoration="none" font-variant="normal" transform="matrix(1 0 0 1 833.638 1361)" direction="ltr" fill="#000000" font-weight="400" font-family="Aptos,Aptos_MSFontService,sans-serif" font-style="normal" font-stretch="normal" unicode-bidi="normal" font-size="83" writing-mode="lr-tb">....................</text><text text-anchor="start" fill-opacity="1" text-decoration="none" font-variant="normal" transform="matrix(1 0 0 1 833.638 1460)" direction="ltr" fill="#000000" font-weight="400" font-family="Aptos,Aptos_MSFontService,sans-serif" font-style="normal" font-stretch="normal" unicode-bidi="normal" font-size="83" writing-mode="lr-tb">....................</text><text text-anchor="start" fill-opacity="1" text-decoration="none" font-variant="normal" transform="matrix(1 0 0 1 833.638 1559)" direction="ltr" fill="#000000" font-weight="400" font-family="Aptos,Aptos_MSFontService,sans-serif" font-style="normal" font-stretch="normal" unicode-bidi="normal" font-size="83" writing-mode="lr-tb">....................</text><path fill="url(#svg1.fill0)" d="M764 1304 1023.28 775 1113.72 775 1373 1304Z" fill-rule="evenodd"/><path fill="#404040" d="M944.5 708.167C944.5 695.648 1000.24 685.5 1069 685.5 1137.76 685.5 1193.5 695.648 1193.5 708.167L1193.5 798.833C1193.5 811.352 1137.76 821.5 1069 821.5 1000.24 821.5 944.5 811.352 944.5 798.833Z" fill-opacity="1" fill-rule="evenodd"/><path stroke-linecap="butt" fill="none" fill-rule="evenodd" stroke-linejoin="miter" d="M1193.5 708.167C1193.5 720.685 1137.76 730.833 1069 730.833 1000.24 730.833 944.5 720.685 944.5 708.167" stroke="#042433" stroke-width="6.875" stroke-opacity="1" stroke-miterlimit="8"/><path stroke-linecap="butt" fill="none" fill-rule="evenodd" stroke-linejoin="miter" d="M944.5 708.167C944.5 695.648 1000.24 685.5 1069 685.5 1137.76 685.5 1193.5 695.648 1193.5 708.167L1193.5 798.833C1193.5 811.352 1137.76 821.5 1069 821.5 1000.24 821.5 944.5 811.352 944.5 798.833Z" stroke="#042433" stroke-width="6.875" stroke-opacity="1" stroke-miterlimit="8"/></g></g></svg>
      </g>
    </g>
    <g text-rendering="geometricPrecision" shape-rendering="geometricPrecision" transform="matrix(0.4333,0,0,0.3283,20.2287,296.9889)">
      <g clip-path="url(#clipPath4)">
        <svg xml:space="preserve" opacity="1" writing-mode="lr-tb" stop-color="rgb(0, 0, 0)" shape-rendering="auto" glyph-orientation-horizontal="0deg" color-profile="auto" lighting-color="rgb(255, 255, 255)" color="rgb(0, 0, 0)" font-weight="400" alignment-baseline="auto" font-style="normal" color-interpolation-filters="linearrgb" text-anchor="start" stroke-linecap="butt" color-interpolation="srgb" font-variant="normal" word-spacing="normal" fill-opacity="1" text-rendering="auto" clip-path="none" text-decoration="none" letter-spacing="normal" glyph-orientation-vertical="auto" display="inline" font-size-adjust="none" fill="rgb(0, 0, 0)" overflow="hidden" font-stretch="normal" stroke-dasharray="none" stroke-miterlimit="4" stop-opacity="1" color-rendering="auto" font-size="12" mask="none" direction="ltr" baseline-shift="baseline" pointer-events="visiblepainted" enable-background="accumulate" fill-rule="nonzero" image-rendering="auto" stroke-dashoffset="0" width="219" marker-end="none" clip="auto" cursor="auto" stroke="none" filter="none" visibility="visible" kerning="auto" stroke-width="1" font-family="&quot;Arial&quot;,&quot;Helvetica&quot;,sans-serif" flood-opacity="1" clip-rule="nonzero" src="none" height="228" unicode-bidi="normal" stroke-linejoin="miter" stroke-opacity="1" flood-color="rgb(0, 0, 0)" dominant-baseline="auto" marker-start="none" marker-mid="none"><g transform="translate(-734 -252)"><g><g><g><g><g><path fill="#000000" d="M604.659 345.864 608.175 345.864 608.175 366.961 604.659 366.961Z" fill-opacity="1" fill-rule="nonzero" transform="matrix(1 0 0 1.53713 334.161 -117.686)"/></g><g><path stroke-linecap="butt" transform="matrix(1 0 0 1.53713 334.161 -117.686)" fill="none" fill-rule="nonzero" stroke-linejoin="miter" d="M604.659 345.864 608.175 345.864 608.175 366.961 604.659 366.961Z" stroke="#000000" stroke-width="0.703226" stroke-opacity="1" stroke-miterlimit="1.45"/></g><g><path fill="#000000" d="M411.711 345.864 415.227 345.864 415.227 366.961 411.711 366.961Z" fill-opacity="1" fill-rule="nonzero" transform="matrix(1 0 0 1.53713 334.161 -117.686)"/></g><g><path stroke-linecap="butt" transform="matrix(1 0 0 1.53713 334.161 -117.686)" fill="none" fill-rule="nonzero" stroke-linejoin="miter" d="M411.711 345.864 415.227 345.864 415.227 366.961 411.711 366.961Z" stroke="#000000" stroke-width="0.703226" stroke-opacity="1" stroke-miterlimit="1.45"/></g><g><path fill="#000000" d="M415.227 354.654 605.098 354.654 605.098 358.17 415.227 358.17Z" fill-opacity="1" fill-rule="nonzero" transform="matrix(1 0 0 1.53713 334.161 -117.686)"/></g><g><path stroke-linecap="butt" transform="matrix(1 0 0 1.53713 334.161 -117.686)" fill="none" fill-rule="nonzero" stroke-linejoin="miter" d="M415.227 354.654 605.098 354.654 605.098 358.17 415.227 358.17Z" stroke="#000000" stroke-width="0.703226" stroke-opacity="1" stroke-miterlimit="1.45"/></g><g><path fill="#DEEBF2" d="M577.672 335.827C579.226 335.827 580.485 337.086 580.485 338.64L580.485 374.184C580.485 375.738 579.226 376.997 577.672 376.997L442.653 376.997C441.1 376.997 439.84 375.738 439.84 374.184L439.84 338.64C439.84 337.086 441.1 335.827 442.653 335.827Z" fill-opacity="1" fill-rule="nonzero" transform="matrix(1 0 0 1.53713 334.161 -117.686)"/></g><g><path stroke-linecap="butt" transform="matrix(1 0 0 1.53713 334.161 -117.686)" fill="none" fill-rule="nonzero" stroke-linejoin="miter" d="M577.672 335.827C579.226 335.827 580.485 337.086 580.485 338.64L580.485 374.184C580.485 375.738 579.226 376.997 577.672 376.997L442.653 376.997C441.1 376.997 439.84 375.738 439.84 374.184L439.84 338.64C439.84 337.086 441.1 335.827 442.653 335.827Z" stroke="#000000" stroke-width="1.40645" stroke-opacity="1" stroke-miterlimit="1.45"/></g><g><path fill="#D2E4F8" d="M493.285 335.827C494.839 335.827 496.098 337.086 496.098 338.64L496.098 374.184C496.098 375.738 494.839 376.997 493.285 376.997L470.782 376.997C469.229 376.997 467.969 375.738 467.969 374.184L467.969 338.64C467.969 337.086 469.229 335.827 470.782 335.827Z" fill-opacity="1" fill-rule="nonzero" transform="matrix(1 0 0 1.53713 334.161 -117.686)"/></g><g><path stroke-linecap="butt" transform="matrix(1 0 0 1.53713 334.161 -117.686)" fill="none" fill-rule="nonzero" stroke-linejoin="miter" d="M493.285 335.827C494.839 335.827 496.098 337.086 496.098 338.64L496.098 374.184C496.098 375.738 494.839 376.997 493.285 376.997L470.782 376.997C469.229 376.997 467.969 375.738 467.969 374.184L467.969 338.64C467.969 337.086 469.229 335.827 470.782 335.827Z" stroke="#000000" stroke-width="1.40645" stroke-opacity="1" stroke-miterlimit="1.45"/></g><g><path fill="#FFC8C8" d="M549.543 335.827C551.097 335.827 552.356 337.086 552.356 338.64L552.356 374.184C552.356 375.738 551.097 376.997 549.543 376.997L527.04 376.997C525.487 376.997 524.227 375.738 524.227 374.184L524.227 338.64C524.227 337.086 525.487 335.827 527.04 335.827Z" fill-opacity="1" fill-rule="nonzero" transform="matrix(1 0 0 1.53713 334.161 -117.686)"/></g><g><path stroke-linecap="butt" transform="matrix(1 0 0 1.53713 334.161 -117.686)" fill="none" fill-rule="nonzero" stroke-linejoin="miter" d="M549.543 335.827C551.097 335.827 552.356 337.086 552.356 338.64L552.356 374.184C552.356 375.738 551.097 376.997 549.543 376.997L527.04 376.997C525.487 376.997 524.227 375.738 524.227 374.184L524.227 338.64C524.227 337.086 525.487 335.827 527.04 335.827Z" stroke="#000000" stroke-width="1.40645" stroke-opacity="1" stroke-miterlimit="1.45"/></g><g><path fill="#B3CEF9" d="M465.156 335.827C466.71 335.827 467.969 337.086 467.969 338.64L467.969 374.184C467.969 375.738 466.71 376.997 465.156 376.997L442.653 376.997C441.1 376.997 439.84 375.738 439.84 374.184L439.84 338.64C439.84 337.086 441.1 335.827 442.653 335.827Z" fill-opacity="1" fill-rule="nonzero" transform="matrix(1 0 0 1.53713 334.161 -117.686)"/></g><g><path stroke-linecap="butt" transform="matrix(1 0 0 1.53713 334.161 -117.686)" fill="none" fill-rule="nonzero" stroke-linejoin="miter" d="M465.156 335.827C466.71 335.827 467.969 337.086 467.969 338.64L467.969 374.184C467.969 375.738 466.71 376.997 465.156 376.997L442.653 376.997C441.1 376.997 439.84 375.738 439.84 374.184L439.84 338.64C439.84 337.086 441.1 335.827 442.653 335.827Z" stroke="#000000" stroke-width="1.40645" stroke-opacity="1" stroke-miterlimit="1.45"/></g><g><path fill="#DCEFFD" d="M521.414 335.827C522.968 335.827 524.227 337.086 524.227 338.64L524.227 374.184C524.227 375.738 522.968 376.997 521.414 376.997L498.911 376.997C497.358 376.997 496.098 375.738 496.098 374.184L496.098 338.64C496.098 337.086 497.358 335.827 498.911 335.827Z" fill-opacity="1" fill-rule="nonzero" transform="matrix(1 0 0 1.53713 334.161 -117.686)"/></g><g><path stroke-linecap="butt" transform="matrix(1 0 0 1.53713 334.161 -117.686)" fill="none" fill-rule="nonzero" stroke-linejoin="miter" d="M521.414 335.827C522.968 335.827 524.227 337.086 524.227 338.64L524.227 374.184C524.227 375.738 522.968 376.997 521.414 376.997L498.911 376.997C497.358 376.997 496.098 375.738 496.098 374.184L496.098 338.64C496.098 337.086 497.358 335.827 498.911 335.827Z" stroke="#000000" stroke-width="1.40645" stroke-opacity="1" stroke-miterlimit="1.45"/></g><g><path fill="#FF9999" d="M577.672 335.827C579.226 335.827 580.485 337.086 580.485 338.64L580.485 374.184C580.485 375.738 579.226 376.997 577.672 376.997L555.169 376.997C553.616 376.997 552.356 375.738 552.356 374.184L552.356 338.64C552.356 337.086 553.616 335.827 555.169 335.827Z" fill-opacity="1" fill-rule="nonzero" transform="matrix(1 0 0 1.53713 334.161 -117.686)"/></g><g><path stroke-linecap="butt" transform="matrix(1 0 0 1.53713 334.161 -117.686)" fill="none" fill-rule="nonzero" stroke-linejoin="miter" d="M577.672 335.827C579.226 335.827 580.485 337.086 580.485 338.64L580.485 374.184C580.485 375.738 579.226 376.997 577.672 376.997L555.169 376.997C553.616 376.997 552.356 375.738 552.356 374.184L552.356 338.64C552.356 337.086 553.616 335.827 555.169 335.827Z" stroke="#000000" stroke-width="1.40645" stroke-opacity="1" stroke-miterlimit="1.45"/></g><g><path fill="#009900" d="M411.711 312.4 432.808 312.4 432.808 315.917 411.711 315.917Z" fill-opacity="1" fill-rule="nonzero" transform="matrix(1 0 0 1.53713 334.161 -117.686)"/></g><g><path fill="#009900" d="M453.905 307.877 475.001 307.877 475.001 315.917 453.905 315.917Z" fill-opacity="1" fill-rule="nonzero" transform="matrix(1 0 0 1.53713 334.161 -117.686)"/></g><g><path fill="#009900" d="M432.808 312.4 453.905 312.4 453.905 315.917 432.808 315.917Z" fill-opacity="1" fill-rule="nonzero" transform="matrix(1 0 0 1.53713 334.161 -117.686)"/></g><g><path fill="#009900" d="M475.001 301.402 496.098 301.402 496.098 315.917 475.001 315.917Z" fill-opacity="1" fill-rule="nonzero" transform="matrix(1 0 0 1.53713 334.161 -117.686)"/></g><g><path fill="#009900" d="M580.485 312.4 601.582 312.4 601.582 315.917 580.485 315.917Z" fill-opacity="1" fill-rule="nonzero" transform="matrix(1 0 0 1.53713 334.161 -117.686)"/></g><g><path fill="#009900" d="M517.195 287.788 538.292 287.788 538.292 315.917 517.195 315.917Z" fill-opacity="1" fill-rule="nonzero" transform="matrix(1 0 0 1.53713 334.161 -117.686)"/></g><g><path fill="#009900" d="M496.098 294.82 517.195 294.82 517.195 315.917 496.098 315.917Z" fill-opacity="1" fill-rule="nonzero" transform="matrix(1 0 0 1.53713 334.161 -117.686)"/></g><g><path fill="#009900" d="M538.292 282.512 559.389 282.512 559.389 315.917 538.292 315.917Z" fill-opacity="1" fill-rule="nonzero" transform="matrix(1 0 0 1.53713 334.161 -117.686)"/></g><g><path fill="#009900" d="M559.389 270.125 580.485 270.125 580.485 315.917 559.389 315.917Z" fill-opacity="1" fill-rule="nonzero" transform="matrix(1 0 0 1.53713 334.161 -117.686)"/></g><g><path fill="#006600" d="M568.454 262.249 571.695 262.249 571.695 270.289 568.454 270.289Z" fill-opacity="1" fill-rule="nonzero" transform="matrix(1 0 0 1.53713 334.161 -117.686)"/></g><g><path fill="#006600" d="M568.454 251.62 571.695 251.62 571.695 259.659 568.454 259.659Z" fill-opacity="1" fill-rule="nonzero" transform="matrix(1 0 0 1.53713 334.161 -117.686)"/></g><g><path fill="#006600" d="M568.316 306.69 571.558 306.69 571.558 314.73 568.316 314.73Z" fill-opacity="1" fill-rule="nonzero" transform="matrix(1 0 0 1.53713 334.161 -117.686)"/></g><g><path fill="#006600" d="M568.316 296.061 571.558 296.061 571.558 304.101 568.316 304.101Z" fill-opacity="1" fill-rule="nonzero" transform="matrix(1 0 0 1.53713 334.161 -117.686)"/></g><g><path fill="#006600" d="M568.316 285.429 571.558 285.429 571.558 293.469 568.316 293.469Z" fill-opacity="1" fill-rule="nonzero" transform="matrix(1 0 0 1.53713 334.161 -117.686)"/></g><g><path fill="#006600" d="M568.316 274.8 571.558 274.8 571.558 282.84 568.316 282.84Z" fill-opacity="1" fill-rule="nonzero" transform="matrix(1 0 0 1.53713 334.161 -117.686)"/></g><g><path fill="#006600" d="M568.316 316.023 571.558 316.023 571.558 324.063 568.316 324.063Z" fill-opacity="1" fill-rule="nonzero" transform="matrix(1 0 0 1.53713 334.161 -117.686)"/></g><g><path fill="#FF9900" d="M411.711 312.4 432.808 312.4 432.808 315.917 411.711 315.917Z" fill-opacity="0.5098" fill-rule="nonzero" transform="matrix(1 0 0 1.53713 334.161 -117.686)"/></g><g><path fill="#FF9900" d="M432.808 307.877 453.905 307.877 453.905 315.917 432.808 315.917Z" fill-opacity="0.5098" fill-rule="nonzero" transform="matrix(1 0 0 1.53713 334.161 -117.686)"/></g><g><path fill="#FF9900" d="M580.485 312.4 601.582 312.4 601.582 315.917 580.485 315.917Z" fill-opacity="0.5098" fill-rule="nonzero" transform="matrix(1 0 0 1.53713 334.161 -117.686)"/></g><g><path fill="#FF9900" d="M559.389 307.877 580.485 307.877 580.485 315.917 559.389 315.917Z" fill-opacity="0.5098" fill-rule="nonzero" transform="matrix(1 0 0 1.53713 334.161 -117.686)"/></g><g><path fill="#FF9900" d="M538.292 301.402 559.389 301.402 559.389 315.917 538.292 315.917Z" fill-opacity="0.5098" fill-rule="nonzero" transform="matrix(1 0 0 1.53713 334.161 -117.686)"/></g><g><path fill="#FF9900" d="M517.195 287.788 538.292 287.788 538.292 315.917 517.195 315.917Z" fill-opacity="0.5098" fill-rule="nonzero" transform="matrix(1 0 0 1.53713 334.161 -117.686)"/></g><g><path fill="#FF9900" d="M496.098 270.125 517.195 270.125 517.195 315.917 496.098 315.917Z" fill-opacity="0.5098" fill-rule="nonzero" transform="matrix(1 0 0 1.53713 334.161 -117.686)"/></g><g><path fill="#FF9900" d="M475.001 287.788 496.098 287.788 496.098 315.917 475.001 315.917Z" fill-opacity="0.5098" fill-rule="nonzero" transform="matrix(1 0 0 1.53713 334.161 -117.686)"/></g><g><path fill="#FF9900" d="M453.905 301.402 475.001 301.402 475.001 315.917 453.905 315.917Z" fill-opacity="0.5098" fill-rule="nonzero" transform="matrix(1 0 0 1.53713 334.161 -117.686)"/></g><g><path fill="#FF9900" d="M505.026 316.023 508.267 316.023 508.267 324.063 505.026 324.063Z" fill-opacity="1" fill-rule="nonzero" transform="matrix(1 0 0 1.53713 334.161 -117.686)"/></g><g><path fill="#FF9900" d="M505.026 273.559 508.267 273.559 508.267 281.599 505.026 281.599Z" fill-opacity="1" fill-rule="nonzero" transform="matrix(1 0 0 1.53713 334.161 -117.686)"/></g><g><path fill="#FF9900" d="M505.026 284.188 508.267 284.188 508.267 292.228 505.026 292.228Z" fill-opacity="1" fill-rule="nonzero" transform="matrix(1 0 0 1.53713 334.161 -117.686)"/></g><g><path fill="#FF9900" d="M505.026 294.82 508.267 294.82 508.267 302.86 505.026 302.86Z" fill-opacity="1" fill-rule="nonzero" transform="matrix(1 0 0 1.53713 334.161 -117.686)"/></g><g><path fill="#FF9900" d="M505.026 305.449 508.267 305.449 508.267 313.489 505.026 313.489Z" fill-opacity="1" fill-rule="nonzero" transform="matrix(1 0 0 1.53713 334.161 -117.686)"/></g><g><path fill="#FF9900" d="M504.889 251.62 508.13 251.62 508.13 259.659 504.889 259.659Z" fill-opacity="1" fill-rule="nonzero" transform="matrix(1 0 0 1.53713 334.161 -117.686)"/></g><g><path fill="#FF9900" d="M504.889 262.249 508.13 262.249 508.13 270.289 504.889 270.289Z" fill-opacity="1" fill-rule="nonzero" transform="matrix(1 0 0 1.53713 334.161 -117.686)"/></g></g></g></g></g></g></svg>
      </g>
    </g>
    <g text-rendering="geometricPrecision" shape-rendering="geometricPrecision" transform="matrix(0.0808,0,0,0.0808,43.1641,34.9251)">
      <g clip-path="url(#clipPath5)">
        <svg xml:space="preserve" opacity="1" writing-mode="lr-tb" stop-color="rgb(0, 0, 0)" shape-rendering="auto" glyph-orientation-horizontal="0deg" color-profile="auto" lighting-color="rgb(255, 255, 255)" color="rgb(0, 0, 0)" font-weight="400" alignment-baseline="auto" font-style="normal" color-interpolation-filters="linearrgb" text-anchor="start" stroke-linecap="butt" color-interpolation="srgb" font-variant="normal" word-spacing="normal" fill-opacity="1" text-rendering="auto" clip-path="none" text-decoration="none" letter-spacing="normal" glyph-orientation-vertical="auto" display="inline" font-size-adjust="none" fill="rgb(0, 0, 0)" overflow="hidden" font-stretch="normal" stroke-dasharray="none" stroke-miterlimit="4" stop-opacity="1" color-rendering="auto" font-size="12" mask="none" direction="ltr" baseline-shift="baseline" pointer-events="visiblepainted" enable-background="accumulate" fill-rule="nonzero" image-rendering="auto" stroke-dashoffset="0" width="614" marker-end="none" clip="auto" cursor="auto" stroke="none" filter="none" visibility="visible" kerning="auto" stroke-width="1" font-family="&quot;Arial&quot;,&quot;Helvetica&quot;,sans-serif" flood-opacity="1" clip-rule="nonzero" src="none" height="816" unicode-bidi="normal" stroke-linejoin="miter" stroke-opacity="1" flood-color="rgb(0, 0, 0)" dominant-baseline="auto" marker-start="none" marker-mid="none"><defs><linearGradient x1="1960.5" x2="1960.5" gradientUnits="userSpaceOnUse" y1="1379.5" y2="1646.5" id="svg3.fill0" spreadMethod="reflect"><stop offset="0" stop-color="#0D0D0D" stop-opacity="1"/><stop offset="0.49" stop-color="#7F7F7F" stop-opacity="1"/><stop offset="1" stop-color="#747474" stop-opacity="1"/></linearGradient><linearGradient x1="1960.5" x2="1960.5" gradientUnits="userSpaceOnUse" y1="1122.5" y2="1390.5" id="svg3.fill1" spreadMethod="reflect"><stop offset="0" stop-color="#0D0D0D" stop-opacity="1"/><stop offset="0.49" stop-color="#7F7F7F" stop-opacity="1"/><stop offset="1" stop-color="#747474" stop-opacity="1"/></linearGradient><linearGradient x1="1960.5" x2="1960.5" gradientUnits="userSpaceOnUse" y1="855.5" y2="1122.5" id="svg3.fill2" spreadMethod="reflect"><stop offset="0" stop-color="#0D0D0D" stop-opacity="1"/><stop offset="0.49" stop-color="#7F7F7F" stop-opacity="1"/><stop offset="1" stop-color="#747474" stop-opacity="1"/></linearGradient></defs><g transform="translate(-1654 -843)"><g><path fill="url(#svg3.fill0)" d="M1666.5 1424C1666.5 1399.42 1798.13 1379.5 1960.5 1379.5 2122.87 1379.5 2254.5 1399.42 2254.5 1424L2254.5 1602C2254.5 1626.58 2122.87 1646.5 1960.5 1646.5 1798.13 1646.5 1666.5 1626.58 1666.5 1602Z" fill-rule="evenodd"/><path stroke-linecap="butt" fill="none" fill-rule="evenodd" stroke-linejoin="miter" d="M2254.5 1424C2254.5 1448.58 2122.87 1468.5 1960.5 1468.5 1798.13 1468.5 1666.5 1448.58 1666.5 1424" stroke="#042433" stroke-width="20.625" stroke-opacity="1" stroke-miterlimit="8"/><path stroke-linecap="butt" fill="none" fill-rule="evenodd" stroke-linejoin="miter" d="M1666.5 1424C1666.5 1399.42 1798.13 1379.5 1960.5 1379.5 2122.87 1379.5 2254.5 1399.42 2254.5 1424L2254.5 1602C2254.5 1626.58 2122.87 1646.5 1960.5 1646.5 1798.13 1646.5 1666.5 1626.58 1666.5 1602Z" stroke="#042433" stroke-width="20.625" stroke-opacity="1" stroke-miterlimit="8"/><path fill="url(#svg3.fill1)" d="M1666.5 1167.17C1666.5 1142.5 1798.13 1122.5 1960.5 1122.5 2122.87 1122.5 2254.5 1142.5 2254.5 1167.17L2254.5 1345.83C2254.5 1370.5 2122.87 1390.5 1960.5 1390.5 1798.13 1390.5 1666.5 1370.5 1666.5 1345.83Z" fill-rule="evenodd"/><path stroke-linecap="butt" fill="none" fill-rule="evenodd" stroke-linejoin="miter" d="M2254.5 1167.17C2254.5 1191.84 2122.87 1211.83 1960.5 1211.83 1798.13 1211.83 1666.5 1191.84 1666.5 1167.17" stroke="#042433" stroke-width="20.625" stroke-opacity="1" stroke-miterlimit="8"/><path stroke-linecap="butt" fill="none" fill-rule="evenodd" stroke-linejoin="miter" d="M1666.5 1167.17C1666.5 1142.5 1798.13 1122.5 1960.5 1122.5 2122.87 1122.5 2254.5 1142.5 2254.5 1167.17L2254.5 1345.83C2254.5 1370.5 2122.87 1390.5 1960.5 1390.5 1798.13 1390.5 1666.5 1370.5 1666.5 1345.83Z" stroke="#042433" stroke-width="20.625" stroke-opacity="1" stroke-miterlimit="8"/><path fill="url(#svg3.fill2)" d="M1666.5 900C1666.5 875.423 1798.13 855.5 1960.5 855.5 2122.87 855.5 2254.5 875.423 2254.5 900L2254.5 1078C2254.5 1102.58 2122.87 1122.5 1960.5 1122.5 1798.13 1122.5 1666.5 1102.58 1666.5 1078Z" fill-rule="evenodd"/><path stroke-linecap="butt" fill="none" fill-rule="evenodd" stroke-linejoin="miter" d="M2254.5 900C2254.5 924.577 2122.87 944.5 1960.5 944.5 1798.13 944.5 1666.5 924.577 1666.5 900" stroke="#042433" stroke-width="20.625" stroke-opacity="1" stroke-miterlimit="8"/><path stroke-linecap="butt" fill="none" fill-rule="evenodd" stroke-linejoin="miter" d="M1666.5 900C1666.5 875.423 1798.13 855.5 1960.5 855.5 2122.87 855.5 2254.5 875.423 2254.5 900L2254.5 1078C2254.5 1102.58 2122.87 1122.5 1960.5 1122.5 1798.13 1122.5 1666.5 1102.58 1666.5 1078Z" stroke="#042433" stroke-width="20.625" stroke-opacity="1" stroke-miterlimit="8"/></g></g></svg>
      </g>
    </g>
    <g fill="white" text-rendering="geometricPrecision" shape-rendering="geometricPrecision" transform="matrix(1,0,0,1,-1125,740)" stroke="white">
      <rect x="1140.1901" y="-591.5942" clip-path="url(#clipPath2)" width="105.5" rx="4" ry="4" height="105.5" stroke="none"/>
    </g>
    <g stroke-linecap="butt" transform="matrix(1,0,0,1,-1125,740)" fill="rgb(216,40,0)" text-rendering="geometricPrecision" shape-rendering="geometricPrecision" stroke="rgb(216,40,0)" stroke-width="7" stroke-miterlimit="1.45">
      <rect x="1140.1901" y="-591.5942" clip-path="url(#clipPath2)" fill="none" width="105.5" rx="4" ry="4" height="105.5"/>
    </g>
    <g text-rendering="geometricPrecision" shape-rendering="geometricPrecision" transform="matrix(0.0741,0,0,0.0741,42.6921,164.607)">
      <g clip-path="url(#clipPath6)">
        <svg xml:space="preserve" opacity="1" writing-mode="lr-tb" stop-color="rgb(0, 0, 0)" shape-rendering="auto" glyph-orientation-horizontal="0deg" color-profile="auto" lighting-color="rgb(255, 255, 255)" color="rgb(0, 0, 0)" font-weight="400" alignment-baseline="auto" font-style="normal" color-interpolation-filters="linearrgb" text-anchor="start" stroke-linecap="butt" color-interpolation="srgb" font-variant="normal" word-spacing="normal" fill-opacity="1" text-rendering="auto" clip-path="none" text-decoration="none" letter-spacing="normal" glyph-orientation-vertical="auto" display="inline" font-size-adjust="none" fill="rgb(0, 0, 0)" overflow="hidden" font-stretch="normal" stroke-dasharray="none" stroke-miterlimit="4" stop-opacity="1" color-rendering="auto" font-size="12" mask="none" direction="ltr" baseline-shift="baseline" pointer-events="visiblepainted" enable-background="accumulate" fill-rule="nonzero" image-rendering="auto" stroke-dashoffset="0" width="679" marker-end="none" clip="auto" cursor="auto" stroke="none" filter="none" visibility="visible" kerning="auto" stroke-width="1" font-family="&quot;Arial&quot;,&quot;Helvetica&quot;,sans-serif" flood-opacity="1" clip-rule="nonzero" src="none" height="985" unicode-bidi="normal" stroke-linejoin="miter" stroke-opacity="1" flood-color="rgb(0, 0, 0)" dominant-baseline="auto" marker-start="none" marker-mid="none"><defs><linearGradient x1="1068.5" x2="1068.5" gradientUnits="userSpaceOnUse" y1="775" y2="1304" id="svg4.fill0" spreadMethod="reflect"><stop offset="0" stop-color="#009901" stop-opacity="1"/><stop offset="0.5" stop-color="#009901" stop-opacity="0.501961"/><stop offset="1" stop-color="#009901" stop-opacity="0"/></linearGradient></defs><g transform="translate(-728 -678)"><g><path stroke-linecap="butt" fill-opacity="1" fill="#FFFFFF" fill-rule="evenodd" stroke-linejoin="miter" d="M744 1022.8 873.8 867 1393 867 1393 1646 744 1646Z" stroke="#000000" stroke-width="27.5" stroke-opacity="1" stroke-miterlimit="8"/><text text-anchor="start" fill-opacity="1" text-decoration="none" font-variant="normal" transform="matrix(1 0 0 1 833.638 965)" direction="ltr" fill="#000000" font-weight="400" font-family="Aptos,Aptos_MSFontService,sans-serif" font-style="normal" font-stretch="normal" unicode-bidi="normal" font-size="83" writing-mode="lr-tb">....................</text><text text-anchor="start" fill-opacity="1" text-decoration="none" font-variant="normal" transform="matrix(1 0 0 1 833.638 1064)" direction="ltr" fill="#000000" font-weight="400" font-family="Aptos,Aptos_MSFontService,sans-serif" font-style="normal" font-stretch="normal" unicode-bidi="normal" font-size="83" writing-mode="lr-tb">....................</text><text text-anchor="start" fill-opacity="1" text-decoration="none" font-variant="normal" transform="matrix(1 0 0 1 833.638 1163)" direction="ltr" fill="#000000" font-weight="400" font-family="Aptos,Aptos_MSFontService,sans-serif" font-style="normal" font-stretch="normal" unicode-bidi="normal" font-size="83" writing-mode="lr-tb">....................</text><text text-anchor="start" fill-opacity="1" text-decoration="none" font-variant="normal" transform="matrix(1 0 0 1 833.638 1262)" direction="ltr" fill="#000000" font-weight="400" font-family="Aptos,Aptos_MSFontService,sans-serif" font-style="normal" font-stretch="normal" unicode-bidi="normal" font-size="83" writing-mode="lr-tb">.................... </text><text text-anchor="start" fill-opacity="1" text-decoration="none" font-variant="normal" transform="matrix(1 0 0 1 833.638 1361)" direction="ltr" fill="#000000" font-weight="400" font-family="Aptos,Aptos_MSFontService,sans-serif" font-style="normal" font-stretch="normal" unicode-bidi="normal" font-size="83" writing-mode="lr-tb">....................</text><text text-anchor="start" fill-opacity="1" text-decoration="none" font-variant="normal" transform="matrix(1 0 0 1 833.638 1460)" direction="ltr" fill="#000000" font-weight="400" font-family="Aptos,Aptos_MSFontService,sans-serif" font-style="normal" font-stretch="normal" unicode-bidi="normal" font-size="83" writing-mode="lr-tb">....................</text><text text-anchor="start" fill-opacity="1" text-decoration="none" font-variant="normal" transform="matrix(1 0 0 1 833.638 1559)" direction="ltr" fill="#000000" font-weight="400" font-family="Aptos,Aptos_MSFontService,sans-serif" font-style="normal" font-stretch="normal" unicode-bidi="normal" font-size="83" writing-mode="lr-tb">....................</text><path fill="url(#svg4.fill0)" d="M764 1304 1023.28 775 1113.72 775 1373 1304Z" fill-rule="evenodd"/><path fill="#404040" d="M944.5 708.167C944.5 695.648 1000.24 685.5 1069 685.5 1137.76 685.5 1193.5 695.648 1193.5 708.167L1193.5 798.833C1193.5 811.352 1137.76 821.5 1069 821.5 1000.24 821.5 944.5 811.352 944.5 798.833Z" fill-opacity="1" fill-rule="evenodd"/><path stroke-linecap="butt" fill="none" fill-rule="evenodd" stroke-linejoin="miter" d="M1193.5 708.167C1193.5 720.685 1137.76 730.833 1069 730.833 1000.24 730.833 944.5 720.685 944.5 708.167" stroke="#042433" stroke-width="6.875" stroke-opacity="1" stroke-miterlimit="8"/><path stroke-linecap="butt" fill="none" fill-rule="evenodd" stroke-linejoin="miter" d="M944.5 708.167C944.5 695.648 1000.24 685.5 1069 685.5 1137.76 685.5 1193.5 695.648 1193.5 708.167L1193.5 798.833C1193.5 811.352 1137.76 821.5 1069 821.5 1000.24 821.5 944.5 811.352 944.5 798.833Z" stroke="#042433" stroke-width="6.875" stroke-opacity="1" stroke-miterlimit="8"/></g></g></svg>
      </g>
    </g>
  </g>
</svg>
